# xmcd
#
# Track frame offsets:
# 150
# 11449
# 25662
# 65413
# 97136
# 108135
# 153770
# 184434
# 213650
# 254824
# 283930
# 313531
#
# Disc length: 4585 seconds
#
#
# Revision: 0
# Processed by: cddbd v1.5.2PL0 Copyright (c) Steve Scherf et al.
# Submitted via: FreeRIP 2.945 
#
DISCID=aa11e70c
DTITLE=Luis Cobos - 2 en 1
DYEAR=2000
DGENRE=Classical
TTITLE0=Popurri guadalajara
TTITLE1=Zacatecas
TTITLE2=Huapango de moncayo
TTITLE3=Popurri la bamba
TTITLE4=La culebra
TTITLE5=Popurri las mañanitas
TTITLE6=El son de veracruz
TTITLE7=Popurri mexicano
TTITLE8=Sones de mariachi
TTITLE9=Popurri mexico lindo y querido
TTITLE10=Asi es mexico
TTITLE11=Los huapangos
EXTD=
EXTT0=
EXTT1=
EXTT2=
EXTT3=
EXTT4=
EXTT5=
EXTT6=
EXTT7=
EXTT8=
EXTT9=
EXTT10=
EXTT11=
PLAYORDER=
